{
    "asset" : {
        "generator" : "Khronos glTF Blender I/O v1.8.19",
        "version" : "2.0"
    },
    "scene" : 0,
    "scenes" : [
        {
            "name" : "Scene",
            "nodes" : [
                0,
                1,
                2,
                3,
                4
            ]
        }
    ],
    "nodes" : [
        {
            "name" : "Background",
            "rotation" : [
                0.6634475588798523,
                -0.00973142683506012,
                -0.0011241735192015767,
                0.7481586933135986
            ]
        },
        {
            "mesh" : 0,
            "name" : "Circle Middle",
            "rotation" : [
                0.7071068286895752,
                0,
                0,
                0.7071068286895752
            ],
            "scale" : [
                0.9146459102630615,
                0.9146459102630615,
                0.9146459102630615
            ],
            "translation" : [
                -1.578970193862915,
                -0.4265269339084625,
                0.6019119024276733
            ]
        },
        {
            "mesh" : 1,
            "name" : "Circle Back",
            "rotation" : [
                0.7071068286895752,
                0,
                0,
                0.7071068286895752
            ],
            "scale" : [
                0.7871081829071045,
                0.7871081829071045,
                0.7871081829071045
            ],
            "translation" : [
                -1.537958025932312,
                -0.06151830777525902,
                0.5809692144393921
            ]
        },
        {
            "mesh" : 2,
            "name" : "Circle Top",
            "rotation" : [
                0.7071068286895752,
                0,
                0,
                0.7071068286895752
            ],
            "scale" : [
                1.020534634590149,
                0.49834224581718445,
                1.020534634590149
            ],
            "translation" : [
                -1.1709859371185303,
                -0.5905876159667969,
                0.5972604751586914
            ]
        },
        {
            "mesh" : 3,
            "name" : "Text",
            "rotation" : [
                0.7071068286895752,
                0,
                0,
                0.7071068286895752
            ],
            "translation" : [
                -0.05102577060461044,
                -0.7738787531852722,
                0.5351861119270325
            ]
        }
    ],
    "materials" : [
        {
            "doubleSided" : true,
            "name" : "Material.007",
            "pbrMetallicRoughness" : {
                "baseColorFactor" : [
                    0.603826642036438,
                    0.5520110130310059,
                    0.5149174928665161,
                    1
                ],
                "metallicFactor" : 0,
                "roughnessFactor" : 0.5
            }
        },
        {
            "doubleSided" : true,
            "name" : "Material.008",
            "pbrMetallicRoughness" : {
                "baseColorFactor" : [
                    0.603826642036438,
                    0.5520110130310059,
                    0.5149174928665161,
                    1
                ],
                "metallicFactor" : 0,
                "roughnessFactor" : 0.5
            }
        },
        {
            "doubleSided" : true,
            "name" : "Material.006",
            "pbrMetallicRoughness" : {
                "baseColorFactor" : [
                    0.9130989909172058,
                    0.13563311100006104,
                    0.048171885311603546,
                    1
                ],
                "metallicFactor" : 0,
                "roughnessFactor" : 0.5
            }
        },
        {
            "doubleSided" : true,
            "name" : "Material.009",
            "pbrMetallicRoughness" : {
                "baseColorFactor" : [
                    0.9999988079071045,
                    0.9999989867210388,
                    1,
                    1
                ],
                "metallicFactor" : 0,
                "roughnessFactor" : 0.5
            }
        }
    ],
    "meshes" : [
        {
            "name" : "Circle.004",
            "primitives" : [
                {
                    "attributes" : {
                        "POSITION" : 0,
                        "NORMAL" : 1,
                        "TEXCOORD_0" : 2
                    },
                    "indices" : 3,
                    "material" : 0
                }
            ]
        },
        {
            "name" : "Circle.005",
            "primitives" : [
                {
                    "attributes" : {
                        "POSITION" : 4,
                        "NORMAL" : 5,
                        "TEXCOORD_0" : 6
                    },
                    "indices" : 7,
                    "material" : 1
                }
            ]
        },
        {
            "name" : "Circle.006",
            "primitives" : [
                {
                    "attributes" : {
                        "POSITION" : 8,
                        "NORMAL" : 9,
                        "TEXCOORD_0" : 10
                    },
                    "indices" : 11,
                    "material" : 2
                }
            ]
        },
        {
            "name" : "Text",
            "primitives" : [
                {
                    "attributes" : {
                        "POSITION" : 12,
                        "NORMAL" : 13,
                        "TEXCOORD_0" : 14
                    },
                    "indices" : 15,
                    "material" : 3
                }
            ]
        }
    ],
    "accessors" : [
        {
            "bufferView" : 0,
            "componentType" : 5126,
            "count" : 496,
            "max" : [
                1,
                3.552713467042264e-15,
                1
            ],
            "min" : [
                -1,
                -0.1647062599658966,
                -1
            ],
            "type" : "VEC3"
        },
        {
            "bufferView" : 1,
            "componentType" : 5126,
            "count" : 496,
            "type" : "VEC3"
        },
        {
            "bufferView" : 2,
            "componentType" : 5126,
            "count" : 496,
            "type" : "VEC2"
        },
        {
            "bufferView" : 3,
            "componentType" : 5123,
            "count" : 768,
            "type" : "SCALAR"
        },
        {
            "bufferView" : 4,
            "componentType" : 5126,
            "count" : 494,
            "max" : [
                1,
                3.5957166944996545e-15,
                1
            ],
            "min" : [
                -1,
                -0.25752875208854675,
                -1
            ],
            "type" : "VEC3"
        },
        {
            "bufferView" : 5,
            "componentType" : 5126,
            "count" : 494,
            "type" : "VEC3"
        },
        {
            "bufferView" : 6,
            "componentType" : 5126,
            "count" : 494,
            "type" : "VEC2"
        },
        {
            "bufferView" : 7,
            "componentType" : 5123,
            "count" : 768,
            "type" : "SCALAR"
        },
        {
            "bufferView" : 8,
            "componentType" : 5126,
            "count" : 512,
            "max" : [
                1,
                0,
                1
            ],
            "min" : [
                -1,
                -0.40455979108810425,
                -1
            ],
            "type" : "VEC3"
        },
        {
            "bufferView" : 9,
            "componentType" : 5126,
            "count" : 512,
            "type" : "VEC3"
        },
        {
            "bufferView" : 10,
            "componentType" : 5126,
            "count" : 512,
            "type" : "VEC2"
        },
        {
            "bufferView" : 11,
            "componentType" : 5123,
            "count" : 768,
            "type" : "SCALAR"
        },
        {
            "bufferView" : 12,
            "componentType" : 5126,
            "count" : 15242,
            "max" : [
                3.0584089756011963,
                0.13999998569488525,
                0.15307149291038513
            ],
            "min" : [
                0.06243705749511719,
                -0.13999998569488525,
                -0.5317220687866211
            ],
            "type" : "VEC3"
        },
        {
            "bufferView" : 13,
            "componentType" : 5126,
            "count" : 15242,
            "type" : "VEC3"
        },
        {
            "bufferView" : 14,
            "componentType" : 5126,
            "count" : 15242,
            "type" : "VEC2"
        },
        {
            "bufferView" : 15,
            "componentType" : 5123,
            "count" : 27840,
            "type" : "SCALAR"
        }
    ],
    "bufferViews" : [
        {
            "buffer" : 0,
            "byteLength" : 5952,
            "byteOffset" : 0
        },
        {
            "buffer" : 0,
            "byteLength" : 5952,
            "byteOffset" : 5952
        },
        {
            "buffer" : 0,
            "byteLength" : 3968,
            "byteOffset" : 11904
        },
        {
            "buffer" : 0,
            "byteLength" : 1536,
            "byteOffset" : 15872
        },
        {
            "buffer" : 0,
            "byteLength" : 5928,
            "byteOffset" : 17408
        },
        {
            "buffer" : 0,
            "byteLength" : 5928,
            "byteOffset" : 23336
        },
        {
            "buffer" : 0,
            "byteLength" : 3952,
            "byteOffset" : 29264
        },
        {
            "buffer" : 0,
            "byteLength" : 1536,
            "byteOffset" : 33216
        },
        {
            "buffer" : 0,
            "byteLength" : 6144,
            "byteOffset" : 34752
        },
        {
            "buffer" : 0,
            "byteLength" : 6144,
            "byteOffset" : 40896
        },
        {
            "buffer" : 0,
            "byteLength" : 4096,
            "byteOffset" : 47040
        },
        {
            "buffer" : 0,
            "byteLength" : 1536,
            "byteOffset" : 51136
        },
        {
            "buffer" : 0,
            "byteLength" : 182904,
            "byteOffset" : 52672
        },
        {
            "buffer" : 0,
            "byteLength" : 182904,
            "byteOffset" : 235576
        },
        {
            "buffer" : 0,
            "byteLength" : 121936,
            "byteOffset" : 418480
        },
        {
            "buffer" : 0,
            "byteLength" : 55680,
            "byteOffset" : 540416
        }
    ],
    "buffers" : [
        {
            "byteLength" : 596096,
            "uri" : "data:application/octet-stream;base64,"
        }
    ]
}
